<?xml version="1.0" encoding="UTF-8"?>
<svg id="Calque_2" data-name="Calque 2" xmlns="http://www.w3.org/2000/svg" viewBox="0 0 168.14 165.35">
  <defs>
    <style>
      .cls-1 {
        fill: #fff;
      }

      .cls-2 {
        fill: #b9d7ff;
      }
    </style>
  </defs>
  <g id="Layer_1" data-name="Layer 1">
    <g>
      <path class="cls-1" d="m148.72,86.1c-.08,0-.16.02-.24.02,1.54-3.57,2.41-7.5,2.41-11.63,0-16.21-13.14-29.35-29.35-29.35-5.73,0-11.06,1.67-15.57,4.5-6.11-14.85-20.71-25.31-37.76-25.31-22.55,0-40.83,18.28-40.83,40.83,0,1.7.14,3.37.34,5.02-.11,0-.23-.02-.34-.02-15.12,0-27.38,12.26-27.38,27.38s12.26,27.38,27.38,27.38h121.35c10.72,0,19.42-8.69,19.42-19.41s-8.69-19.42-19.42-19.42Z"/>
      <path class="cls-2" d="m80.81,0c12.97,0,24.12,3.92,33.46,11.75,9.33,7.83,14,17.59,14,29.28,0,6.52-1.49,12.5-4.46,17.93-2.97,5.43-6.59,10.17-10.84,14.22-4.25,4.05-10.29,9.16-18.12,15.34-7.83,6.18-13.2,11.75-16.12,16.69s-4.38,9.48-4.38,13.6c0,6.59-1.91,9.89-5.73,9.89-2.02,0-3.41-.77-4.16-2.3-.75-1.53-1.12-5-1.12-10.39s1.44-10.85,4.32-16.39c2.88-5.54,8.71-12.43,17.47-20.66,8.99-8.53,14.7-15.77,17.13-21.73,2.43-5.95,3.65-11.96,3.65-18.02,0-7.26-2.24-13.75-6.73-19.48-4.48-5.73-10.39-8.59-17.71-8.59-8.89,0-15.9,2.35-21.02,7.06-5.12,4.7-7.68,10.72-7.68,18.03,0,4.03.89,7.49,2.66,10.36,1.78,2.87,4.07,4.31,6.88,4.31.91,0,1.72-.13,2.44-.39.72-.26,1.45-.39,2.21-.39,1.74,0,3.49.65,5.27,1.95,1.78,1.3,2.66,2.81,2.66,4.52,0,3.05-1.39,5.45-4.17,7.2-2.78,1.75-6.08,2.62-9.92,2.62-5.56,0-10.44-2.47-14.65-7.4-4.21-4.93-6.31-11.96-6.31-21.08,0-10.32,3.73-19.21,11.19-26.69C58.52,3.74,68.43,0,80.81,0Zm-9.43,141.87c3.01,0,5.77,1.12,8.29,3.35s3.78,5.29,3.78,9.17c0,2.98-1.2,5.55-3.59,7.71-2.4,2.16-5.21,3.24-8.42,3.24s-6.14-1.17-8.67-3.52c-2.53-2.35-3.8-5.13-3.8-8.33s1.22-6.04,3.67-8.27c2.44-2.24,5.36-3.35,8.75-3.35Z"/>
    </g>
  </g>
</svg>