<?xml version="1.0" encoding="UTF-8"?>
<svg id="Calque_2" data-name="Calque 2" xmlns="http://www.w3.org/2000/svg" viewBox="0 0 203 148.66">
  <defs>
    <style>
      .cls-1 {
        fill: #fff;
      }

      .cls-2 {
        fill: #ffdc7b;
      }
    </style>
  </defs>
  <g id="Layer_1" data-name="Layer 1">
    <g>
      <g>
        <circle class="cls-2" cx="64.34" cy="64.34" r="26.02" transform="translate(-9.55 117.45) rotate(-80.71)"/>
        <g>
          <path class="cls-2" d="m64.34,28.43h0c-1.72,0-3.12-1.4-3.12-3.12V3.12c0-1.72,1.4-3.12,3.12-3.12h0c1.72,0,3.12,1.4,3.12,3.12v22.19c0,1.72-1.4,3.12-3.12,3.12Z"/>
          <path class="cls-2" d="m64.34,128.69h0c-1.72,0-3.12-1.4-3.12-3.12v-22.19c0-1.72,1.4-3.12,3.12-3.12h0c1.72,0,3.12,1.4,3.12,3.12v22.19c0,1.72-1.4,3.12-3.12,3.12Z"/>
        </g>
        <g>
          <path class="cls-2" d="m89.74,38.95h0c-1.22-1.22-1.22-3.19,0-4.41l15.69-15.69c1.22-1.22,3.19-1.22,4.41,0h0c1.22,1.22,1.22,3.19,0,4.41l-15.69,15.69c-1.22,1.22-3.19,1.22-4.41,0Z"/>
          <path class="cls-2" d="m18.85,109.84h0c-1.22-1.22-1.22-3.19,0-4.41l15.69-15.69c1.22-1.22,3.19-1.22,4.41,0h0c1.22,1.22,1.22,3.19,0,4.41l-15.69,15.69c-1.22,1.22-3.19,1.22-4.41,0Z"/>
        </g>
        <g>
          <path class="cls-2" d="m100.25,64.34h0c0-1.72,1.4-3.12,3.12-3.12h22.19c1.72,0,3.12,1.4,3.12,3.12h0c0,1.72-1.4,3.12-3.12,3.12h-22.19c-1.72,0-3.12-1.4-3.12-3.12Z"/>
          <path class="cls-2" d="m0,64.34h0c0-1.72,1.4-3.12,3.12-3.12h22.19c1.72,0,3.12,1.4,3.12,3.12h0c0,1.72-1.4,3.12-3.12,3.12H3.12c-1.72,0-3.12-1.4-3.12-3.12Z"/>
        </g>
        <g>
          <path class="cls-2" d="m89.74,89.74h0c1.22-1.22,3.19-1.22,4.41,0l15.69,15.69c1.22,1.22,1.22,3.19,0,4.41h0c-1.22,1.22-3.19,1.22-4.41,0l-15.69-15.69c-1.22-1.22-1.22-3.19,0-4.41Z"/>
          <path class="cls-2" d="m18.85,18.85h0c1.22-1.22,3.19-1.22,4.41,0l15.69,15.69c1.22,1.22,1.22,3.19,0,4.41h0c-1.22,1.22-3.19,1.22-4.41,0l-15.69-15.69c-1.22-1.22-1.22-3.19,0-4.41Z"/>
        </g>
      </g>
      <path class="cls-1" d="m183.58,109.83c-.08,0-.16.02-.24.02,1.54-3.57,2.41-7.5,2.41-11.63,0-16.21-13.14-29.35-29.35-29.35-5.73,0-11.06,1.67-15.57,4.5-6.11-14.85-20.71-25.31-37.76-25.31-22.55,0-40.83,18.28-40.83,40.83,0,1.7.14,3.37.34,5.02-.11,0-.23-.02-.34-.02-15.12,0-27.38,12.26-27.38,27.38s12.26,27.38,27.38,27.38h121.35c10.72,0,19.42-8.69,19.42-19.41s-8.69-19.42-19.42-19.42Z"/>
    </g>
  </g>
</svg>