<?xml version="1.0" encoding="UTF-8"?>
<svg id="Calque_2" data-name="Calque 2" xmlns="http://www.w3.org/2000/svg" viewBox="0 0 187.22 100.59">
  <defs>
    <style>
      .cls-1 {
        fill: #fff;
      }
    </style>
  </defs>
  <g id="Layer_1" data-name="Layer 1">
    <g>
      <path class="cls-1" d="m148.72,61.76c-.08,0-.16.02-.24.02,1.54-3.57,2.41-7.5,2.41-11.63,0-16.21-13.14-29.35-29.35-29.35-5.73,0-11.06,1.67-15.57,4.5C99.86,10.46,85.26,0,68.21,0,45.66,0,27.38,18.28,27.38,40.83c0,1.7.14,3.37.34,5.02-.11,0-.23-.02-.34-.02-15.12,0-27.38,12.26-27.38,27.38s12.26,27.38,27.38,27.38h121.35c10.72,0,19.42-8.69,19.42-19.41s-8.69-19.42-19.42-19.42Z"/>
      <path class="cls-1" d="m133.63,6.73h-62.06c-1.86,0-3.37-1.51-3.37-3.37h0c0-1.86,1.51-3.37,3.37-3.37h62.06c1.86,0,3.37,1.51,3.37,3.37h0c0,1.86-1.51,3.37-3.37,3.37Z"/>
      <path class="cls-1" d="m183.86,6.73h-36.01c-1.86,0-3.37-1.51-3.37-3.37h0c0-1.86,1.51-3.37,3.37-3.37h36.01c1.86,0,3.37,1.51,3.37,3.37h0c0,1.86-1.51,3.37-3.37,3.37Z"/>
      <path class="cls-1" d="m159.11,27.55h-37.12c-1.86,0-3.37-1.51-3.37-3.37h0c0-1.86,1.51-3.37,3.37-3.37h37.12c1.86,0,3.37,1.51,3.37,3.37h0c0,1.86-1.51,3.37-3.37,3.37Z"/>
      <path class="cls-1" d="m183.67,27.55h-9.85c-1.86,0-3.37-1.51-3.37-3.37h0c0-1.86,1.51-3.37,3.37-3.37h9.85c1.86,0,3.37,1.51,3.37,3.37h0c0,1.86-1.51,3.37-3.37,3.37Z"/>
      <path class="cls-1" d="m183.67,68.26h-61.68c-1.86,0-3.37-1.51-3.37-3.37h0c0-1.86,1.51-3.37,3.37-3.37h61.68c1.86,0,3.37,1.51,3.37,3.37h0c0,1.86-1.51,3.37-3.37,3.37Z"/>
      <path class="cls-1" d="m183.67,100.59h-61.68c-1.86,0-3.37-1.51-3.37-3.37h0c0-1.86,1.51-3.37,3.37-3.37h61.68c1.86,0,3.37,1.51,3.37,3.37h0c0,1.86-1.51,3.37-3.37,3.37Z"/>
    </g>
  </g>
</svg>