<?xml version="1.0" encoding="UTF-8"?>
<svg id="Calque_2" data-name="Calque 2" xmlns="http://www.w3.org/2000/svg" viewBox="0 0 171.8 152.82">
  <defs>
    <style>
      .cls-1 {
        fill: #82b7ff;
      }
    </style>
  </defs>
  <g id="Layer_1" data-name="Layer 1">
    <g>
      <path class="cls-1" d="m171.8,59.85c-.78-.67-19.55-16.74-44.97.02,0,0-21.35-16.73-40.93,0-19.57-16.73-40.92,0-40.92,0-25.43-16.77-44.2-.7-44.97-.02C27.63,11.11,85.89,0,85.89,0c0,0,58.28,11.11,85.9,59.85Z"/>
      <path class="cls-1" d="m75.91,152.82c-7.49,0-13.58-6.09-13.58-13.58v-2.8c0-1.99,1.61-3.6,3.6-3.6s3.6,1.61,3.6,3.6v2.8c0,3.53,2.87,6.39,6.39,6.39s6.39-2.87,6.39-6.39V34.76c0-1.99,1.61-3.6,3.6-3.6s3.6,1.61,3.6,3.6v104.48c0,7.49-6.09,13.58-13.58,13.58Z"/>
    </g>
  </g>
</svg>