<?xml version="1.0" encoding="UTF-8"?>
<svg id="Calque_2" data-name="Calque 2" xmlns="http://www.w3.org/2000/svg" viewBox="0 0 405.07 136.41">
  <defs>
    <style>
      .cls-1 {
        fill: #fff;
      }

      .cls-2 {
        fill: #b9d7ff;
      }
    </style>
  </defs>
  <g id="Layer_1" data-name="Layer 1">
    <g>
      <path class="cls-2" d="m388.96,51.22c-.07,0-.13.02-.2.02,1.28-2.96,2-6.22,2-9.65,0-13.44-10.9-24.34-24.34-24.34-4.75,0-9.17,1.38-12.92,3.74-5.07-12.32-17.17-21-31.32-21-18.7,0-33.86,15.16-33.86,33.86,0,1.41.11,2.8.28,4.17-.09,0-.19-.01-.28-.01-12.54,0-22.71,10.17-22.71,22.71s10.17,22.71,22.71,22.71h100.64c8.89,0,16.1-7.21,16.1-16.1s-7.21-16.1-16.1-16.1Z"/>
      <path class="cls-2" d="m72.81,117.4s-.08.01-.12.01c.75-1.75,1.18-3.67,1.18-5.69,0-7.93-6.43-14.37-14.37-14.37-2.8,0-5.41.82-7.62,2.21-2.99-7.27-10.14-12.39-18.49-12.39-11.04,0-19.99,8.95-19.99,19.99,0,.83.07,1.65.17,2.46-.06,0-.11,0-.17,0-7.4,0-13.4,6-13.4,13.4s6,13.4,13.4,13.4h59.41c5.25,0,9.51-4.26,9.51-9.51s-4.26-9.51-9.51-9.51Z"/>
      <path class="cls-1" d="m254.38,84.77c-.08,0-.16.02-.24.02,1.54-3.57,2.41-7.5,2.41-11.63,0-16.21-13.14-29.35-29.35-29.35-5.73,0-11.06,1.67-15.57,4.5-6.11-14.85-20.71-25.31-37.76-25.31-22.55,0-40.83,18.28-40.83,40.83,0,1.7.14,3.37.34,5.02-.11,0-.23-.02-.34-.02-15.12,0-27.38,12.26-27.38,27.38s12.26,27.38,27.38,27.38h121.35c10.72,0,19.42-8.69,19.42-19.41s-8.69-19.42-19.42-19.42Z"/>
    </g>
  </g>
</svg>