<?xml version="1.0" encoding="UTF-8"?>
<svg id="Calque_2" data-name="Calque 2" xmlns="http://www.w3.org/2000/svg" viewBox="0 0 168.14 181.42">
  <defs>
    <style>
      .cls-1 {
        fill: #fff;
      }
    </style>
  </defs>
  <g id="Layer_1" data-name="Layer 1">
    <g>
      <path class="cls-1" d="m148.72,61.76c-.08,0-.16.02-.24.02,1.54-3.57,2.41-7.5,2.41-11.63,0-16.21-13.14-29.35-29.35-29.35-5.73,0-11.06,1.67-15.57,4.5C99.86,10.46,85.26,0,68.21,0,45.66,0,27.38,18.28,27.38,40.83c0,1.7.14,3.37.34,5.02-.11,0-.23-.02-.34-.02-15.12,0-27.38,12.26-27.38,27.38s12.26,27.38,27.38,27.38h121.35c10.72,0,19.42-8.69,19.42-19.41s-8.69-19.42-19.42-19.42Z"/>
      <circle class="cls-1" cx="46.51" cy="127.28" r="5.99"/>
      <circle class="cls-1" cx="84.07" cy="127.28" r="5.99"/>
      <circle class="cls-1" cx="84.07" cy="175.43" r="5.99"/>
      <circle class="cls-1" cx="64.09" cy="150.85" r="5.99"/>
      <path class="cls-1" d="m110.44,150.85c0,3.31-2.68,5.99-5.99,5.99s-5.99-2.68-5.99-5.99,2.68-5.99,5.99-5.99,5.99,2.68,5.99,5.99Z"/>
      <circle class="cls-1" cx="121.63" cy="127.28" r="5.99"/>
    </g>
  </g>
</svg>