<?xml version="1.0" encoding="UTF-8"?>
<svg id="Calque_2" data-name="Calque 2" xmlns="http://www.w3.org/2000/svg" viewBox="0 0 151.65 151.65">
  <defs>
    <style>
      .cls-1 {
        fill: #f8ca4d;
      }
    </style>
  </defs>
  <g id="Layer_1" data-name="Layer 1">
    <g>
      <circle class="cls-1" cx="75.82" cy="75.82" r="30.67" transform="translate(-25.93 42) rotate(-26.61)"/>
      <g>
        <path class="cls-1" d="m75.82,33.51h0c-2.03,0-3.68-1.65-3.68-3.68V3.68c0-2.03,1.65-3.68,3.68-3.68h0c2.03,0,3.68,1.65,3.68,3.68v26.15c0,2.03-1.65,3.68-3.68,3.68Z"/>
        <path class="cls-1" d="m75.82,151.65h0c-2.03,0-3.68-1.65-3.68-3.68v-26.15c0-2.03,1.65-3.68,3.68-3.68h0c2.03,0,3.68,1.65,3.68,3.68v26.15c0,2.03-1.65,3.68-3.68,3.68Z"/>
      </g>
      <g>
        <path class="cls-1" d="m105.75,45.9h0c-1.44-1.44-1.44-3.76,0-5.2l18.49-18.49c1.44-1.44,3.76-1.44,5.2,0h0c1.44,1.44,1.44,3.76,0,5.2l-18.49,18.49c-1.44,1.44-3.76,1.44-5.2,0Z"/>
        <path class="cls-1" d="m22.21,129.44h0c-1.44-1.44-1.44-3.76,0-5.2l18.49-18.49c1.44-1.44,3.76-1.44,5.2,0h0c1.44,1.44,1.44,3.76,0,5.2l-18.49,18.49c-1.44,1.44-3.76,1.44-5.2,0Z"/>
      </g>
      <g>
        <path class="cls-1" d="m118.14,75.82h0c0-2.03,1.65-3.68,3.68-3.68h26.15c2.03,0,3.68,1.65,3.68,3.68h0c0,2.03-1.65,3.68-3.68,3.68h-26.15c-2.03,0-3.68-1.65-3.68-3.68Z"/>
        <path class="cls-1" d="m0,75.82h0c0-2.03,1.65-3.68,3.68-3.68h26.15c2.03,0,3.68,1.65,3.68,3.68h0c0,2.03-1.65,3.68-3.68,3.68H3.68c-2.03,0-3.68-1.65-3.68-3.68Z"/>
      </g>
      <g>
        <path class="cls-1" d="m105.75,105.75h0c1.44-1.44,3.76-1.44,5.2,0l18.49,18.49c1.44,1.44,1.44,3.76,0,5.2h0c-1.44,1.44-3.76,1.44-5.2,0l-18.49-18.49c-1.44-1.44-1.44-3.76,0-5.2Z"/>
        <path class="cls-1" d="m22.21,22.21h0c1.44-1.44,3.76-1.44,5.2,0l18.49,18.49c1.44,1.44,1.44,3.76,0,5.2h0c-1.44,1.44-3.76,1.44-5.2,0l-18.49-18.49c-1.44-1.44-1.44-3.76,0-5.2Z"/>
      </g>
    </g>
  </g>
</svg>