<?xml version="1.0" encoding="UTF-8"?>
<svg id="Calque_2" data-name="Calque 2" xmlns="http://www.w3.org/2000/svg" viewBox="0 0 168.14 188.96">
  <defs>
    <style>
      .cls-1 {
        fill: #b9d7ff;
      }

      .cls-2 {
        fill: #ffdc7b;
      }
    </style>
  </defs>
  <g id="Layer_1" data-name="Layer 1">
    <g>
      <path class="cls-1" d="m148.72,61.76c-.08,0-.16.02-.24.02,1.54-3.57,2.41-7.5,2.41-11.63,0-16.21-13.14-29.35-29.35-29.35-5.73,0-11.06,1.67-15.57,4.5C99.86,10.46,85.26,0,68.21,0,45.66,0,27.38,18.28,27.38,40.83c0,1.7.14,3.37.34,5.02-.11,0-.23-.02-.34-.02-15.12,0-27.38,12.26-27.38,27.38s12.26,27.38,27.38,27.38h121.35c10.72,0,19.42-8.69,19.42-19.41s-8.69-19.42-19.42-19.42Z"/>
      <path class="cls-1" d="m36.41,148.43c-3.3,6.86-11.53,9.75-18.39,6.45-6.86-3.3-9.75-11.53-6.45-18.39,3.3-6.86,24.63-19.41,24.63-19.41,0,0,3.52,24.5.22,31.36Z"/>
      <path class="cls-1" d="m156.53,148.43c-3.3,6.86-11.53,9.75-18.39,6.45-6.86-3.3-9.75-11.53-6.45-18.39,3.3-6.86,24.63-19.41,24.63-19.41,0,0,3.52,24.5.22,31.36Z"/>
      <polygon class="cls-2" points="73.19 112.32 60.7 150.36 77.92 150.36 66.76 188.96 107.44 134.46 86.43 134.46 94.38 112.32 73.19 112.32"/>
    </g>
  </g>
</svg>