<?xml version="1.0" encoding="UTF-8"?>
<svg id="Calque_2" data-name="Calque 2" xmlns="http://www.w3.org/2000/svg" viewBox="0 0 117.67 118.61">
  <defs>
    <style>
      .cls-1 {
        fill: #faaf3b;
      }

      .cls-2 {
        fill: #f6921e;
      }
    </style>
  </defs>
  <g id="Capa_3" data-name="Capa 3">
    <g>
      <path class="cls-2" d="m91.36,59.31c0,17.96-14.56,32.52-32.52,32.52s-32.52-14.56-32.52-32.52,14.56-32.52,32.52-32.52,32.52,14.56,32.52,32.52Z"/>
      <path class="cls-1" d="m117.14,67.67l-10.72-8.83,10.03-8.41c.4-.33.59-.86.5-1.37-.09-.51-.45-.94-.94-1.12l-12.91-4.7,7.16-12.66c.26-.45.25-1.01-.01-1.46-.27-.45-.75-.72-1.27-.72l-14.17.13,2.34-13.26c.09-.51-.1-1.04-.5-1.37-.4-.34-.95-.43-1.44-.26l-12.78,4.65-2.58-13.88c-.09-.51-.46-.94-.95-1.11-.49-.17-1.04-.07-1.44.26l-10.77,9.21L59.75.73c-.26-.45-.74-.73-1.26-.73s-1,.28-1.27.73l-6.87,11.9-10.61-8.74c-.4-.33-.95-.42-1.44-.24-.49.18-.84.61-.93,1.13l-2.29,13.7-13.31-4.85c-.49-.18-1.04-.08-1.44.25-.4.34-.59.86-.5,1.37l2.45,13.91-13.6.12c-.52,0-1,.29-1.26.74-.26.46-.25,1.01.01,1.46l6.84,11.6L.96,47.94c-.49.18-.85.6-.94,1.12-.09.52.1,1.04.5,1.37l11.14,9.35-10.45,8.93c-.4.34-.58.86-.49,1.38.09.51.46.94.95,1.11l12.34,4.37-6.94,12.03c-.26.45-.26,1.01,0,1.46.26.45.74.73,1.26.73h14.82s-2.33,13.92-2.33,13.92c-.09.51.11,1.04.51,1.37.4.33.95.42,1.44.24l12.12-4.54,2.34,13.26c.09.51.45.94.94,1.12.49.18,1.04.08,1.44-.25l11.35-9.53,7.38,12.53c.26.45.75.73,1.27.72.52,0,1-.29,1.26-.74l6.44-11.39,10.03,8.41c.4.34.95.44,1.44.25.49-.18.85-.61.94-1.12l2.52-14.32,13.97,4.94c.49.17,1.04.08,1.44-.27.4-.34.58-.86.49-1.38l-2.46-13.23h12.94c.52,0,1-.28,1.27-.73.26-.45.26-1.01,0-1.46l-7.06-12.22,13.88-5.19c.49-.18.84-.61.93-1.13.09-.52-.11-1.04-.51-1.37Zm-58.3,30.99c-21.7,0-39.36-17.66-39.36-39.36S37.13,19.95,58.83,19.95s39.36,17.66,39.36,39.36-17.66,39.36-39.36,39.36Z"/>
    </g>
  </g>
</svg>