<?xml version="1.0" encoding="UTF-8"?>
<svg id="Calque_2" data-name="Calque 2" xmlns="http://www.w3.org/2000/svg" viewBox="0 0 821.46 615.6">
  <defs>
    <style>
      .cls-1 {
        fill: #fff;
      }
    </style>
  </defs>
  <g id="objects">
    <g>
      <path class="cls-1" d="m0,240.51c109.51,25.52,224.46,28.79,334.98,9.44,46.12-8.37,96.34-30.28,113.3-76.59,4.08-10.73,6.25-22.01,7.08-33.68,1.79-18.62-3.2-36.9-15.63-51.55-17.44-21.22-48.04-29.99-74.69-22.59-32.05,8.47-54.92,36.2-61.32,68.35-6.02-27.03,4.81-58.79,25.1-78.75,18.15-18.48,44.24-29.14,70.22-29.33,56.49-.84,104.07,44.05,108.88,99.96,4.25,49.74-15.23,100-55.49,130.7-31.93,24.98-71.68,35.93-110.9,39.36-112.46,12.24-240.06-4.3-341.53-55.33h0Z"/>
      <path class="cls-1" d="m181.19,418.52c23.25-4.9,46.8-7.69,70.45-9.6,54.09-3.99,108.69-2.98,162.12,10.04,41.52,9.51,85.05,29.75,100.08,73.4,7.22,20.95,8.56,47.68,1.2,68.49-11.75,34.64-47.91,58.53-83.97,54.26-39.32-3.56-71.83-41.42-60.89-80.22,1.84,5.83,4.07,11.18,6.96,15.96,9.82,16.93,28.92,28.62,47.99,27.71,19.33-.4,37.35-14.24,41.14-32.9,1.25-5.52.9-11.22.35-16.8-.94-9.83-3.39-19.47-8.82-27.43-12.47-18.02-38.26-28.21-58.27-36.46,0,0-7.73-3.01-7.73-3.01l-7.69-2.59c-65.45-20.16-135.11-28.58-202.91-40.83h0Z"/>
      <path class="cls-1" d="m530.78,214.86c22.69-30.93,64.3-56.13,100.12-69.1,11.09-3.98,22.98-7.28,35.01-9.19,1.01-.13,2.51-.46,3.52-.64,12.94-2.48,28.27-6.9,38.19-14.34,11.25-8.42,15.55-19.34,17.64-33.65.85-6.93,1.59-14.2.07-21.12-2.72-13.19-11.68-24.48-23.87-30.59-32.9-15.79-68.31,6.97-76.38,41.35-6.95-27.26,9.38-56.95,34.3-69.44,34.94-18.36,79.01-4.43,99.27,29.12,6.92,11.25,11.06,24.39,11.73,37.63.16,2.92.22,6.07.2,8.99-1.1,63.16-45.14,91.84-104,91.74-32.52,1.91-64.28,10.67-95.34,21.6-13.89,5.08-27.2,10.58-40.46,17.64h0Z"/>
      <path class="cls-1" d="m8.85,305.85c71.53,25.77,148.01,36.04,223.77,36.12,91.87-.48,184.07-14,264.42-59.1,22.29-11.69,44.28-24.41,68.42-34.1,51.36-20.77,111.47-23.48,163.72-3.84,41.62,15.37,76.4,50.84,87.23,94.37,5.44,21.08,6.66,43.17,2.76,64.52-6.74,35.86-30.46,68.13-63.13,84.32-38.3,19.81-86.81,11.76-115.91-20.02-17.66-18.8-27.17-45.99-23.75-71.38,2.89,23.87,15.27,45.95,34.11,60.08,47.66,35.26,108.95,10.64,125.14-44.71,5.59-19.35,3.24-41.19-2.97-59.79-7.91-23.55-25.22-42.42-47.44-53.14-41.79-19.95-96.48-17.33-139.45.23-21.65,8.7-42.53,20.58-64.06,31.38-17.04,8.58-35.07,16.86-53.22,23.54-66.56,24.94-138.96,30.58-209.29,26.67-50.47-2.78-100.7-11.78-148.76-27.44-35.53-11.85-70.59-26.59-101.59-47.74h0Z"/>
    </g>
  </g>
</svg>